<svg width="250" height="250" xmlns="http://www.w3.org/2000/svg" xml:space="preserve">
    <rect fill="#56ffaa" height="250" width="250" />
    <g fill="currentColor">
        <path d="m139.20457,52.93425l-84.89829,47.75657a2.57143,2.57143 0 0 0 -1.30629,2.24229l0,61.03543c0,0.92571 0.49371,1.77943 1.296,2.232l54,30.85714a2.57143,2.57143 0 0 0 2.55086,0l84.85715,-48.48686a2.58171,2.58171 0 0 0 1.296,-2.232l0,-58.78286a2.57143,2.57143 0 0 0 -1.24457,-2.20114l-53.96915,-32.37943a2.55086,2.55086 0 0 0 -2.58171,-0.04114zm-34.776,130.07315l-41.14286,-23.51314l0,-45.97714l41.14286,24.68572l0,44.80457zm-36.05143,-78.42857l71.96915,-40.48457l41.27657,24.768l-71.96915,40.48457l-41.27657,-24.768zm77.19429,16.36457l0,44.424l-10.28571,5.87314l0,-44.51657l10.28571,-5.78057zm10.28571,-5.79086l10.28571,-5.78057l0,44.24914l-10.28571,5.87314l0,-44.34172zm-41.14286,23.14286l10.28571,-5.78057l0,44.60914l-10.28571,5.87314l0,-44.70172zm72,3.56914l-10.28571,5.87314l0,-44.14629l10.28571,-5.78057l0,44.05372z" />
    </g>
</svg>
